<?xml version="1.0" encoding="UTF-8" standalone="no"?>
<!-- Created with Inkscape (http://www.inkscape.org/) -->

<svg
   version="1.1"
   id="svg1"
   width="127.99983"
   height="128.00023"
   viewBox="0 0 127.99983 128.00023"
   sodipodi:docname="favicon.svg"
   inkscape:version="1.3 (0e150ed6c4, 2023-07-21)"
   inkscape:export-filename="Reddit-Emblema.png"
   inkscape:export-xdpi="96"
   inkscape:export-ydpi="96"
   xmlns:inkscape="http://www.inkscape.org/namespaces/inkscape"
   xmlns:sodipodi="http://sodipodi.sourceforge.net/DTD/sodipodi-0.dtd"
   xmlns="http://www.w3.org/2000/svg"
   xmlns:svg="http://www.w3.org/2000/svg">
  <defs
     id="defs1" />
  <sodipodi:namedview
     id="namedview1"
     pagecolor="#505050"
     bordercolor="#eeeeee"
     borderopacity="1"
     inkscape:showpageshadow="0"
     inkscape:pageopacity="0"
     inkscape:pagecheckerboard="0"
     inkscape:deskcolor="#505050"
     inkscape:zoom="2.8284271"
     inkscape:cx="52.325902"
     inkscape:cy="56.74532"
     inkscape:window-width="1920"
     inkscape:window-height="1001"
     inkscape:window-x="-9"
     inkscape:window-y="-9"
     inkscape:window-maximized="1"
     inkscape:current-layer="g1" />
  <g
     inkscape:groupmode="layer"
     inkscape:label="Image"
     id="g1"
     transform="translate(-579.06129,63.810104)">
    <g
       id="g2"
       transform="matrix(0.97313007,0,0,0.97311198,15.559337,1.7256769)">
      <path
         id="rect8"
         style="fill:#ffe6d5;fill-opacity:1;stroke:#fe7133;stroke-width:5;stroke-dasharray:none;stroke-opacity:1"
         d="m 666.2376,18.461869 2.40821,-2.39067 c 0.81715,1.55686 1.91522,3.06987 3.28377,4.45006 l 2.05143,2.06883 c 5.48173,5.52825 13.13799,6.75823 17.16771,2.758 l 2.03304,-2.0182 6.60594,-6.55757 7.27342,-7.2202505 -9.89424,-9.97824595 -2.05143,-2.06882505 -3.85266,-3.885332 -6.04158,-6.0929125 -29.06467,-29.311393 -8.26871,-8.338854 -1.62539,-1.639533 -2.05143,-2.068832 -9.89424,-9.978245 -7.27343,7.220253 -6.60594,6.557567 -2.03304,2.018196 c -4.02968,4.000265 -2.8609,11.670245 2.62081,17.198484 l 2.05143,2.068825 c 0.5543,0.558536 1.13049,1.072645 1.72302,1.542631 l -1.93682,1.922673 z" />
      <path
         id="path2"
         style="fill:#fe7133;fill-opacity:1;stroke-width:0.0491783"
         d="m 597.85033,-20.800957 c -0.72022,0.714567 -1.39738,1.412234 -2.04428,2.106797 -0.64691,0.694562 -1.26387,1.385632 -1.86265,2.0881 -0.59881,0.702468 -1.17951,1.416293 -1.75436,2.155643 -0.57488,0.739323 -1.14392,1.504278 -1.71937,2.309111 -0.56392,0.788821 -1.10804,1.587571 -1.63221,2.3952205 -0.52416,0.807627 -1.02833,1.624197 -1.5122,2.448691 -0.48393,0.824447 -0.94754,1.656839 -1.39064,2.496164 -0.44303,0.839386 -0.86555,1.685681 -1.26731,2.537881 -0.40172,0.852243 -0.78265,1.71040105 -1.14258,2.57343905 -0.35988,0.86311295 -0.69882,1.73107895 -1.01632,2.60307895 -0.31756,0.87193 -0.61379,1.74782 -0.88844,2.62668 -0.27463,0.87888 -0.52772,1.7607 -0.75894,2.64448 -0.23122,0.8838 -0.44063,1.7695 -0.62794,2.6561605 -0.1873,0.8867 -0.35258,1.77429 -0.49543,2.66192 -0.14286,0.88762 -0.26329,1.77523 -0.3612,2.66176 -0.0979,0.88654 -0.17321,1.77202 -0.22557,2.65556 -0.0524,0.88349 -0.082,1.76501 -0.0884,2.64344 -0.006,0.87849 0.0104,1.75395 0.0506,2.62535 0.0401,0.87139 0.10365,1.73886 0.1908,2.60123 0.0872,0.86241 0.19809,1.71978 0.33288,2.57119 0.18109,1.14451 0.40313,2.27171 0.66507,3.37969 0.26193,1.10798 0.56378,2.19681 0.90478,3.26479 0.34101,1.06801 0.72116,2.11513 1.13954,3.13983 0.41843,1.02473 0.87505,2.02696 1.36911,3.00498 0.49411,0.97807 1.02559,1.93197 1.59371,2.86006 0.56806,0.92802 1.17276,1.83028 1.81318,2.70502 0.64038,0.87468 1.31656,1.72189 2.02762,2.53996 0.71105,0.81806 1.45696,1.60697 2.23694,2.365 0.73299,0.71238 1.33679,1.27191 1.94508,1.79307 0.60823,0.52109 1.22099,1.00385 1.97183,1.56274 0.51052,0.38001 1.05059,0.75949 1.60893,1.13162 0.55835,0.37213 1.13505,0.73707 1.71892,1.08791 0.58392,0.35089 1.17503,0.68773 1.76222,1.00397 0.58712,0.31617 1.17038,0.61165 1.73855,0.87985 0.87477,0.41286 1.76273,0.79572 2.66323,1.14824 0.90056,0.35258 1.81365,0.6748 2.73872,0.9668 0.92503,0.29195 1.86199,0.55361 2.81035,0.78473 0.94843,0.23118 1.90823,0.43187 2.87886,0.60205 0.97061,0.1702 1.95202,0.30982 2.94364,0.41878 0.99163,0.10897 1.99353,0.18733 3.00502,0.23489 1.01155,0.0476 2.03279,0.0645 3.06301,0.0504 1.03024,-0.014 2.06943,-0.0589 3.11719,-0.13473 0.92714,-0.0671 1.88228,-0.16589 2.8529,-0.29399 0.97054,-0.12818 1.95648,-0.2857 2.94543,-0.47022 0.98889,-0.18457 1.98076,-0.39608 2.96295,-0.63228 0.98216,-0.23625 1.95472,-0.49725 2.90505,-0.78047 1.10879,-0.33043 2.21004,-0.6942 3.30238,-1.09067 1.09239,-0.39642 2.17581,-0.82551 3.24898,-1.28647 1.07323,-0.46087 2.13625,-0.95363 3.18765,-1.4774 1.05136,-0.52383 2.09116,-1.07876 3.11799,-1.6639 1.02683,-0.58515 2.04068,-1.20061 3.04024,-1.84555 0.99952,-0.645 1.98467,-1.31949 2.95421,-2.02271 0.96957,-0.70321 1.92341,-1.43522 2.86023,-2.19517 0.93688,-0.7599 1.85661,-1.54787 2.75798,-2.36301 v 0 c 0.38985,-0.35194 1.31435,-1.2524 2.22683,-2.15711 0.91213,-0.90506 1.8127,-1.81393 2.15236,-2.1856 0.76474,-0.83544 1.50427,-1.68024 2.21775,-2.53519 0.71349,-0.85491 1.40136,-1.71967 2.06354,-2.59448 0.66216,-0.87479 1.29864,-1.75953 1.90963,-2.65434 0.61096,-0.89488 1.1964,-1.79979 1.75624,-2.71494 0.55988,-0.91511 1.09422,-1.84055 1.60308,-2.77616 0.50892,-0.93553 0.99232,-1.88133 1.45031,-2.83757 0.458,-0.95626 0.89059,-1.92283 1.29781,-2.89996 0.40728,-0.97705 0.78924,-1.96453 1.14584,-2.96264 0.40029,-1.12034 0.76046,-2.2285 1.08246,-3.33379 0.32205,-1.10521 0.6059,-2.20764 0.85387,-3.31655 0.24789,-1.10902 0.45981,-2.22447 0.6378,-3.35594 0.17805,-1.1314 0.32224,-2.2787105 0.43456,-3.4513705 0.0918,-0.95816 0.15994,-1.86493 0.20428,-2.74158 0.0443,-0.87673 0.0647,-1.72348 0.0613,-2.5615 -0.003,-0.83799 -0.0306,-1.667327 -0.0819,-2.50946295 -0.0512,-0.842086 -0.12641,-1.69704905 -0.22566,-2.58604505 -0.12388,-1.109917 -0.28526,-2.204667 -0.48347,-3.28292 -0.19828,-1.078288 -0.43347,-2.140137 -0.70507,-3.184392 -0.27153,-1.044206 -0.5795,-2.0708885 -0.92334,-3.0786785 -0.3439,-1.007839 -0.72371,-1.996799 -1.13884,-2.96579 -0.41519,-0.969033 -0.86566,-1.918076 -1.35108,-2.845914 -0.48547,-0.927865 -1.0058,-1.834503 -1.56047,-2.718797 -0.55465,-0.884244 -1.14374,-1.746221 -1.76659,-2.584525 -0.6229,-0.838346 -1.27975,-1.653145 -1.96983,-2.443139 -0.36435,-0.416966 -1.00691,-1.089785 -1.65808,-1.746334 -0.65104,-0.656697 -1.31096,-1.296813 -1.7093,-1.648909 -0.67084,-0.592634 -1.35086,-1.157669 -2.04197,-1.696222 -0.69105,-0.538519 -1.39306,-1.050535 -2.1076,-1.537123 -0.71455,-0.486589 -1.44164,-0.947735 -2.18282,-1.384508 -0.74119,-0.436808 -1.49652,-0.849207 -2.26753,-1.23837 -0.68571,-0.346094 -1.38407,-0.673732 -2.09391,-0.982561 -0.70981,-0.308836 -1.43105,-0.598912 -2.16262,-0.869904 -0.73151,-0.270942 -1.47342,-0.522827 -2.2243,-0.755338 -0.75088,-0.232511 -1.51083,-0.445647 -2.27865,-0.639083 -0.76781,-0.193429 -1.54347,-0.367208 -2.3258,-0.520919 -0.78237,-0.153781 -1.57144,-0.287495 -2.36594,-0.400965 -0.79451,-0.113455 -1.59449,-0.206652 -2.39875,-0.279243 -0.80427,-0.07259 -1.61289,-0.124571 -2.42454,-0.155684 -0.76358,-0.02925 -1.52888,-0.04112 -2.29556,-0.03578 -0.76663,0.0054 -1.53457,0.02802 -2.30319,0.06768 -0.76863,0.03968 -1.53802,0.09636 -2.30755,0.169988 -0.76952,0.07363 -1.53925,0.164176 -2.30863,0.271374 -0.76933,0.107268 -1.5384,0.231188 -2.30651,0.371697 -0.76807,0.14051 -1.53514,0.297593 -2.3009,0.471011 -0.76574,0.173425 -1.53008,0.363248 -2.29237,0.569257 -0.76231,0.206022 -1.52267,0.428209 -2.28042,0.666497 -0.75782,0.238232 -1.51302,0.492634 -2.26521,0.762806 -0.75218,0.270185 -1.50127,0.55616 -2.24677,0.857897 -0.74551,0.30173 -1.48736,0.619263 -2.2251,0.952233 -0.73772,0.332962 -1.47131,0.681474 -2.20022,1.045287 -0.72885,0.363877 -1.45301,0.743063 -2.17194,1.137459 -0.71893,0.394396 -1.43256,0.804058 -2.14048,1.228655 -0.7079,0.424603 -1.41001,0.864282 -2.10582,1.31874 -0.69585,0.454443 -1.38531,0.923778 -2.06795,1.407736 -0.77466,0.549238 -1.51757,1.097748 -2.23967,1.654701 -0.72217,0.556875 -1.42338,1.12227 -2.11466,1.705174 -0.69154,0.582642 -1.37257,1.183399 -2.05463,1.810674 -0.68225,0.627098 -1.36524,1.281094 -2.06003,1.970791 z m 17.13239,3.914466 c 0.10331,-0.08393 0.27127,-0.209184 0.5314,-0.394926 -0.51987,0.371881 -0.67204,0.500546 -0.67508,0.542138 0.001,-0.021 0.0405,-0.06314 0.14596,-0.1449 z m 4.46233,10.6717895 c 0.3718,0.815166 0.48196,1.008702 0.51794,0.991646 -0.036,0.01704 -0.14616,-0.17643 -0.51794,-0.991646 z m 38.64334,-8.8832835 c 0.12229,0.165138 0.31945,0.340522 0.63178,0.580867 -0.3124,-0.240282 -0.50949,-0.415729 -0.63178,-0.580867 z" />
      <rect
         style="fill:#ffe6d5;fill-opacity:1;stroke-width:5.00001;stroke-dasharray:none"
         id="rect6"
         width="18.026772"
         height="32.670708"
         x="-461.48788"
         y="459.25748"
         transform="matrix(-0.70504416,-0.7091634,0.71086285,-0.70333065,0,0)" />
    </g>
  </g>
</svg>
